<svg width="95" height="97" viewBox="0 0 95 97" fill="none" xmlns="http://www.w3.org/2000/svg">
<g clip-path="url(#clip0_5904_11)">
<path d="M71.8658 17.4313L78.5427 10.7544C70.2603 4.02652 59.7098 0 48.2418 0C36.7739 0 26.1979 4.02652 17.9155 10.7544L24.5924 17.4313C31.1419 12.3854 39.3478 9.37822 48.2418 9.40371C57.1359 9.37822 65.3163 12.3854 71.8658 17.4313Z" fill="#71B8B1"/>
<path d="M17.4313 71.8658C12.3854 65.3163 9.37822 57.1104 9.37822 48.2164C9.37822 39.3223 12.3854 31.1419 17.4313 24.5924L10.7544 17.9155C4.02652 26.1979 0 36.7484 0 48.2418C0 59.7098 4.02652 70.2603 10.7544 78.5682L17.4313 71.8658Z" fill="#252759"/>
<path d="M24.5924 79.0522L17.9155 85.7291C26.1979 92.457 36.7484 96.4835 48.2164 96.4835C59.6843 96.4835 70.2603 92.457 78.5427 85.7291L71.8658 79.0522C65.3163 84.0981 57.1104 87.1053 48.2164 87.0798C39.3478 87.0798 31.1419 84.0727 24.5924 79.0522Z" fill="#47A1D9"/>
<path d="M28.9247 43.2467V43.1958C28.9247 42.6096 29.0266 42.049 29.2305 41.5138C29.4344 40.9786 29.7147 40.5199 30.0715 40.1376C30.4282 39.7299 30.8615 39.4241 31.3457 39.1947C31.8299 38.9654 32.3905 38.8634 32.9767 38.8634C33.6902 38.8634 34.3019 38.9909 34.888 39.2712C35.4487 39.5515 36.0093 39.9338 36.5445 40.418L38.4813 38.1754C38.1755 37.8695 37.8187 37.5637 37.4364 37.3089C37.0542 37.054 36.6719 36.8247 36.2132 36.6208C35.78 36.4424 35.2957 36.2895 34.7606 36.1876C34.2254 36.0856 33.6393 36.0347 32.9767 36.0347C31.9063 36.0347 30.9124 36.2131 30.046 36.5953C29.154 36.9776 28.3895 37.4873 27.7524 38.1499C27.1153 38.8125 26.6311 39.577 26.2743 40.4435C25.9175 41.3099 25.7391 42.2528 25.7391 43.2467V43.2977C25.7391 44.2916 25.9175 45.2345 26.2743 46.101C26.6311 46.9674 27.1408 47.732 27.7524 48.3691C28.3895 49.0062 29.154 49.5159 30.0205 49.8981C30.887 50.2804 31.8299 50.4588 32.8747 50.4588C33.5628 50.4588 34.149 50.4078 34.7096 50.2804C35.2448 50.1785 35.7545 50.0001 36.2132 49.7962C36.6719 49.5668 37.0797 49.312 37.4874 49.0062C37.8697 48.7004 38.2519 48.3691 38.6087 47.9613L36.6719 45.999C36.1367 46.5087 35.5761 46.891 35.0409 47.1968C34.4803 47.4771 33.8177 47.63 33.0276 47.63C32.4415 47.63 31.8809 47.5026 31.3967 47.2732C30.887 47.0439 30.4792 46.7381 30.1224 46.3303C29.7657 45.9226 29.4853 45.4639 29.3069 44.9287C29.0266 44.419 28.9247 43.8583 28.9247 43.2467ZM49.0063 44.3935H45.3111L47.1714 39.8828L49.0063 44.3935ZM51.3763 50.2039H54.5874L48.624 36.1876H45.7953L39.832 50.2039H42.941L44.2153 47.0949H50.1021L51.3763 50.2039ZM64.9595 41.0806C64.9595 41.6667 64.7556 42.1509 64.3479 42.5077C63.9401 42.8645 63.354 43.0429 62.6149 43.0429H59.5058V39.0418H62.5385C63.303 39.0418 63.8891 39.1947 64.2969 39.5515C64.7301 39.8828 64.934 40.367 64.934 41.0551V41.0806H64.9595ZM68.4763 50.2039L65.0869 45.2345C65.9788 44.9032 66.6924 44.3935 67.2531 43.68C67.8137 42.9664 68.0686 42.049 68.0686 40.9277V40.8767C68.0686 39.5515 67.6608 38.4812 66.8708 37.6911C65.9279 36.7482 64.5772 36.2895 62.8188 36.2895H56.4477V50.2039H59.5058V45.7442H61.8759H61.9268L64.9085 50.2039H68.4763ZM77.3958 39.1183H81.6262V36.2895H70.1073V39.1183H74.3377V50.2039H77.3958V39.1183ZM87.2837 47.4771V44.5464H93.8332V41.8196H87.2837V38.9908H94.7506V36.264H84.2766V50.2039H94.8526V47.4771H87.2837Z" fill="#252759"/>
<path d="M30.4537 57.5944H28.1091L29.2814 54.8676L30.4537 57.5944ZM31.575 60.2958H32.8492L29.8421 53.415H28.7208L25.7136 60.2958H26.9369L27.6504 58.6393H30.8869L31.575 60.2958ZM38.6596 59.2254C38.7871 58.9706 38.838 58.6903 38.838 58.359V58.3335C38.838 58.0532 38.7871 57.7983 38.6851 57.5944C38.5832 57.3906 38.4558 57.1867 38.2774 57.0338C38.099 56.8809 37.8696 56.728 37.5893 56.626C37.309 56.5241 37.0032 56.4222 36.6464 56.3202C36.3151 56.2438 36.0603 56.1673 35.8309 56.0909C35.627 56.0144 35.4486 55.938 35.3212 55.8615C35.1938 55.7851 35.1173 55.6831 35.0664 55.5812C35.0154 55.4792 34.9899 55.3773 34.9899 55.2244V55.1989C34.9899 54.9696 35.0918 54.7912 35.2702 54.6128C35.4741 54.4599 35.729 54.3834 36.0857 54.3834C36.3915 54.3834 36.6974 54.4344 37.0032 54.5618C37.309 54.6892 37.6148 54.8676 37.9206 55.0715L38.5577 54.1541C38.2009 53.8737 37.8441 53.6699 37.4364 53.517C37.0287 53.364 36.5954 53.2876 36.0857 53.2876C35.7544 53.2876 35.4486 53.3386 35.1428 53.4405C34.8625 53.5424 34.6076 53.6699 34.4038 53.8483C34.1999 54.0266 34.047 54.2305 33.9196 54.4599C33.7921 54.7147 33.7412 54.9696 33.7412 55.2754V55.3009C33.7412 55.6067 33.7921 55.887 33.8941 56.0909C33.996 56.3202 34.1489 56.4986 34.3273 56.6515C34.5312 56.8044 34.7606 56.9319 35.0409 57.0338C35.3212 57.1357 35.6525 57.2377 36.0093 57.3141C36.3406 57.3906 36.5954 57.467 36.7738 57.518C36.9777 57.5944 37.1306 57.6709 37.2325 57.7474C37.3345 57.8238 37.4364 57.9257 37.4619 58.0277C37.5129 58.1296 37.5129 58.2316 37.5129 58.359V58.3845C37.5129 58.6393 37.4109 58.8432 37.1816 58.9961C36.9522 59.149 36.6719 59.2254 36.2896 59.2254C35.8564 59.2254 35.4741 59.149 35.1428 58.9961C34.8115 58.8432 34.4802 58.6138 34.1489 58.3335L33.4354 59.2C33.8431 59.5822 34.3018 59.8371 34.7605 60.0155C35.2448 60.1938 35.7544 60.2958 36.2641 60.2958C36.6209 60.2958 36.9522 60.2448 37.258 60.1684C37.5638 60.0664 37.8187 59.939 38.0225 59.7606C38.3793 59.6842 38.5322 59.4803 38.6596 59.2254ZM44.9033 59.2254C45.0307 58.9706 45.0817 58.6903 45.0817 58.359V58.3335C45.0817 58.0532 45.0307 57.7983 44.9288 57.5944C44.8269 57.3906 44.6994 57.1867 44.521 57.0338C44.3426 56.8809 44.1133 56.728 43.833 56.626C43.5526 56.5241 43.2468 56.4222 42.89 56.3202C42.5587 56.2438 42.3039 56.1673 42.0745 56.0909C41.8707 56.0144 41.6923 55.938 41.5649 55.8615C41.4374 55.7851 41.361 55.6831 41.31 55.5812C41.259 55.4792 41.2336 55.3773 41.2336 55.2244V55.1989C41.2336 54.9696 41.3355 54.7912 41.5139 54.6128C41.7178 54.4599 41.9726 54.3834 42.3294 54.3834C42.6352 54.3834 42.941 54.4344 43.2468 54.5618C43.5526 54.6892 43.8584 54.8676 44.1643 55.0715L44.8014 54.1541C44.4446 53.8737 44.0878 53.6699 43.6801 53.517C43.2723 53.364 42.8391 53.2876 42.3294 53.2876C41.9981 53.2876 41.6923 53.3386 41.3865 53.4405C41.1061 53.5424 40.8513 53.6699 40.6474 53.8483C40.4435 54.0266 40.2906 54.2305 40.1632 54.4599C40.0358 54.7147 39.9848 54.9696 39.9848 55.2754V55.3009C39.9848 55.6067 40.0358 55.887 40.1377 56.0909C40.2397 56.3202 40.3926 56.4986 40.571 56.6515C40.7748 56.8044 41.0042 56.9319 41.2845 57.0338C41.5649 57.1357 41.8962 57.2377 42.2529 57.3141C42.5842 57.3906 42.8391 57.467 43.0175 57.518C43.2213 57.5944 43.3742 57.6709 43.4762 57.7474C43.5781 57.8238 43.6801 57.9257 43.7055 58.0277C43.7565 58.1296 43.7565 58.2316 43.7565 58.359V58.3845C43.7565 58.6393 43.6546 58.8432 43.4252 58.9961C43.1959 59.149 42.9155 59.2254 42.5333 59.2254C42.1 59.2254 41.7178 59.149 41.3865 58.9961C41.0552 58.8432 40.7239 58.6138 40.3926 58.3335L39.679 59.2C40.0868 59.5822 40.52 59.8371 41.0042 60.0155C41.4884 60.1938 41.9981 60.2958 42.5078 60.2958C42.8646 60.2958 43.1959 60.2448 43.5017 60.1684C43.8075 60.0664 44.0623 59.939 44.2662 59.7606C44.5975 59.6842 44.7759 59.4803 44.9033 59.2254ZM52.0134 58.6903C52.1408 58.308 52.2173 57.8748 52.2173 57.3651V53.4915H51.0195V57.4161C51.0195 58.0532 50.8666 58.5119 50.5608 58.8432C50.255 59.149 49.8218 59.3274 49.2866 59.3274C48.7514 59.3274 48.3182 59.149 48.0124 58.8177C47.7066 58.4864 47.5537 58.0022 47.5537 57.3651V53.4915H46.3814V57.4161C46.3814 57.9003 46.4578 58.3335 46.5853 58.7158C46.7127 59.098 46.9166 59.4038 47.1714 59.6587C47.4263 59.9135 47.7321 60.0919 48.0888 60.2193C48.4456 60.3467 48.8534 60.3977 49.2866 60.3977C49.7453 60.3977 50.1276 60.3467 50.5098 60.2193C50.8666 60.0919 51.1724 59.9135 51.4273 59.6332C51.6566 59.3783 51.8605 59.0725 52.0134 58.6903ZM56.8045 56.8554H55.0461V54.5618H56.8045C57.2632 54.5618 57.5945 54.6637 57.8493 54.8421C58.1042 55.046 58.2316 55.3263 58.2316 55.6831V55.7086C58.2316 56.0654 58.1042 56.3457 57.8493 56.5496C57.569 56.7535 57.2377 56.8554 56.8045 56.8554ZM59.6587 60.2958L57.8238 57.7219C58.0532 57.6454 58.2826 57.569 58.4864 57.4415C58.6903 57.3141 58.8432 57.1867 58.9961 57.0083C59.149 56.8299 59.251 56.626 59.3274 56.4222C59.4039 56.1928 59.4548 55.938 59.4548 55.6576V55.6322C59.4548 55.3263 59.4039 55.0715 59.3019 54.8167C59.2 54.5618 59.0726 54.3579 58.8942 54.1541C58.6648 53.9502 58.41 53.7718 58.0787 53.6444C57.7474 53.517 57.3651 53.466 56.9319 53.466H53.8993V60.2958H55.097V57.9257H56.5751H56.6006L58.2826 60.2958H59.6587ZM65.0359 57.5944H62.6913L63.8636 54.8676L65.0359 57.5944ZM66.1572 60.2958H67.4314L64.4243 53.415H63.303L60.2958 60.2958H61.5191L62.2326 58.6393H65.4691L66.1572 60.2958ZM73.5477 60.2958H74.5415V53.466H73.3438V58.1806L69.6995 53.466H68.6037V60.2958H69.8015V55.4538L73.5477 60.2958ZM77.2684 56.8809C77.2684 56.5241 77.3193 56.2183 77.4213 55.938C77.5232 55.6576 77.6761 55.4028 77.88 55.1734C78.0839 54.9441 78.3132 54.7912 78.5936 54.6637C78.8739 54.5363 79.1797 54.4854 79.4855 54.4854C79.8678 54.4854 80.2245 54.5618 80.5304 54.7147C80.8362 54.8676 81.1165 55.0715 81.3968 55.3263L82.1614 54.4344C82.0084 54.2815 81.8301 54.1286 81.6517 54.0012C81.4733 53.8737 81.2694 53.7718 81.0655 53.6699C80.8617 53.5679 80.6068 53.4915 80.352 53.4405C80.0971 53.3895 79.8168 53.364 79.511 53.364C79.0013 53.364 78.5171 53.466 78.0839 53.6444C77.6506 53.8228 77.2939 54.0776 76.9626 54.4089C76.6567 54.7402 76.4019 55.097 76.2235 55.5302C76.0451 55.9634 75.9687 56.4222 75.9687 56.9064V56.9318C75.9687 57.4161 76.0451 57.8748 76.2235 58.308C76.4019 58.7412 76.6313 59.098 76.9626 59.4293C77.2684 59.7351 77.6506 59.99 78.0584 60.1684C78.4916 60.3467 78.9503 60.4487 79.4345 60.4487C79.7403 60.4487 80.0462 60.4232 80.301 60.3722C80.5558 60.3213 80.8107 60.2448 81.0146 60.1174C81.2439 60.0155 81.4478 59.888 81.6262 59.7351C81.8301 59.5822 82.0084 59.4293 82.1868 59.2254L81.4223 58.4354C81.142 58.7158 80.8362 58.9196 80.5304 59.0725C80.2245 59.2254 79.8678 59.3019 79.46 59.3019C79.1287 59.3019 78.8229 59.2509 78.5681 59.1235C78.2877 58.9961 78.0584 58.8177 77.8545 58.6138C77.6506 58.3845 77.4977 58.1296 77.3958 57.8493C77.3193 57.5435 77.2684 57.2122 77.2684 56.8809ZM83.4865 60.2958H88.5834V59.2254H84.6843V57.4161H88.0992V56.3202H84.6843V54.5618H88.5324V53.4915H83.4865V60.2958ZM94.8271 58.359C94.8271 58.0532 94.7761 57.8238 94.6741 57.5944C94.5722 57.3906 94.4448 57.1867 94.2664 57.0338C94.088 56.8809 93.8587 56.728 93.5783 56.626C93.298 56.5241 92.9922 56.4222 92.6354 56.3202C92.3041 56.2438 92.0493 56.1673 91.8199 56.0909C91.616 56.0144 91.4376 55.938 91.3102 55.8615C91.1828 55.7851 91.1063 55.6831 91.0554 55.5812C91.0044 55.4792 90.9789 55.3773 90.9789 55.2244V55.1989C90.9789 54.9696 91.0809 54.7912 91.2593 54.6128C91.4631 54.4599 91.718 54.3834 92.0747 54.3834C92.3806 54.3834 92.6864 54.4344 92.9922 54.5618C93.298 54.6892 93.6038 54.8676 93.9096 55.0715L94.5467 54.1541C94.1899 53.8737 93.8332 53.6699 93.4254 53.517C93.0177 53.364 92.5844 53.2876 92.0747 53.2876C91.7434 53.2876 91.4376 53.3386 91.1318 53.4405C90.8515 53.5424 90.5967 53.6699 90.3928 53.8483C90.1889 54.0266 90.036 54.2305 89.9086 54.4599C89.7812 54.7147 89.7302 54.9696 89.7302 55.2754V55.3009C89.7302 55.6067 89.7812 55.887 89.8831 56.0909C89.985 56.3202 90.1379 56.4986 90.3163 56.6515C90.5202 56.8044 90.7496 56.9319 91.0299 57.0338C91.3102 57.1357 91.6415 57.2377 91.9983 57.3141C92.3296 57.3906 92.5844 57.467 92.7628 57.518C92.9667 57.5944 93.1196 57.6709 93.2215 57.7474C93.3235 57.8238 93.4254 57.9257 93.4509 58.0277C93.5019 58.1296 93.5019 58.2316 93.5019 58.359V58.3845C93.5019 58.6393 93.3999 58.8432 93.1706 58.9961C92.9412 59.149 92.6609 59.2254 92.2786 59.2254C91.8454 59.2254 91.4631 59.149 91.1318 58.9961C90.8005 58.8432 90.4692 58.6138 90.1379 58.3335L89.4244 59.2C89.8321 59.5822 90.2908 59.8371 90.7496 60.0155C91.2338 60.1938 91.7435 60.2958 92.2531 60.2958C92.6099 60.2958 92.9412 60.2448 93.247 60.1684C93.5528 60.0664 93.8077 59.939 94.0116 59.7606C94.2154 59.5822 94.3938 59.3783 94.5212 59.1235C94.7761 58.9706 94.8271 58.6903 94.8271 58.359Z" fill="#252759"/>
</g>
<defs>
<clipPath id="clip0_5904_11">
<rect width="94.8271" height="96.4836" fill="white"/>
</clipPath>
</defs>
</svg>
