<?xml version="1.0" encoding="UTF-8"?>
<svg id="Calque_1" xmlns="http://www.w3.org/2000/svg" version="1.1" viewBox="0 0 1920 288">
  <!-- Generator: Adobe Illustrator 29.1.0, SVG Export Plug-In . SVG Version: 2.1.0 Build 142)  -->
  <defs>
    <style>
      .st0 {
        fill: #3d0791;
      }

      .st1 {
        fill: #f9601c;
      }
    </style>
  </defs>
  <path class="st0" d="M373.78,280.98c-20.79,0-39.6-4.74-56.44-14.21-16.84-9.47-30.19-22.23-40.06-38.28-9.87-16.05-14.8-33.94-14.8-53.68s4.93-37.95,14.8-53.87c9.87-15.92,23.22-28.61,40.06-38.09,16.84-9.47,35.65-14.21,56.44-14.21s39.92,4.74,56.63,14.21c16.71,9.47,29.99,22.17,39.86,38.09,9.87,15.92,14.8,33.88,14.8,53.87s-4.93,37.63-14.8,53.68c-9.87,16.05-23.16,28.81-39.86,38.28-16.71,9.47-35.59,14.21-56.63,14.21ZM406.93,139.49c-8.68-9.34-19.73-14.01-33.15-14.01s-24.47,4.67-33.15,14.01c-8.68,9.34-13.02,21.11-13.02,35.32s4.34,25.99,13.02,35.32c8.68,9.34,19.73,14.01,33.15,14.01s24.47-4.67,33.15-14.01c8.68-9.34,13.02-21.11,13.02-35.32s-4.34-25.98-13.02-35.32Z"/>
  <path class="st0" d="M710.49,274.27c-2.9.79-7.83,1.58-14.8,2.37-6.98.79-15,1.51-24.07,2.17-9.08.65-18.42,1.18-28.02,1.58-9.61.39-18.49.59-26.64.59-33.68,0-59.2-5.4-76.57-16.18-17.37-10.79-26.05-28.15-26.05-52.1,0-21.84,7.63-38.22,22.89-49.14,15.26-10.91,39.99-16.38,74.2-16.38,16.05,0,27.76.53,35.13,1.58,0-19.73-16.18-29.6-48.54-29.6-10.79,0-20.99,1.05-30.59,3.16-9.61,2.11-17.17,5-22.69,8.68-3.69-3.16-6.97-7.43-9.87-12.83-2.9-5.39-4.34-10.85-4.34-16.38,0-10.26,5.78-18.35,17.36-24.27,11.58-5.92,29.21-8.88,52.89-8.88,36.05,0,63.35,7.24,81.9,21.71,18.55,14.47,27.82,36.05,27.82,64.73v119.19ZM616.56,235.98c6.57,0,12.83-.2,18.75-.59,5.92-.39,9.8-.85,11.64-1.38v-42.23c-4.74-.53-10-.99-15.79-1.38-5.79-.39-10.92-.59-15.39-.59-13.95,0-23.82,2.11-29.6,6.31-5.79,4.21-8.68,10.13-8.68,17.76,0,14.74,13.02,22.1,39.07,22.1Z"/>
  <path class="st0" d="M959.23,167.7c0,23.68-4.41,44.01-13.22,60.98-8.82,16.97-21.31,29.93-37.49,38.88-16.18,8.94-35.32,13.42-57.42,13.42s-41.84-4.54-58.41-13.62c-16.58-9.08-29.4-21.64-38.48-37.69-9.08-16.05-13.62-34.34-13.62-54.86s4.34-38.74,13.02-54.66c8.68-15.92,20.39-28.48,35.13-37.69,14.73-9.21,31.18-13.81,49.33-13.81,11.84,0,22.76,1.91,32.76,5.72,10,3.82,18.29,9.14,24.87,15.98V12.2c4.47-1.84,9.4-3.29,14.8-4.34,5.39-1.05,10.59-1.58,15.59-1.58,10.52,0,18.68,2.37,24.47,7.1,5.78,4.74,8.68,11.71,8.68,20.92v133.4ZM818.33,139.49c-8.42,8.82-12.63,20.46-12.63,34.93s4.21,26.12,12.63,34.93c8.42,8.82,19.34,13.22,32.76,13.22s24.33-4.4,32.76-13.22c8.42-8.81,12.63-20.46,12.63-34.93s-4.21-26.11-12.63-34.93c-8.42-8.81-19.34-13.22-32.76-13.22s-24.34,4.41-32.76,13.22Z"/>
  <path class="st0" d="M1258.41,279.07h-65.91v-109.32h-104.98v109.32h-65.91V36.34c0-18.68,11.45-28.02,34.34-28.02,5.53,0,10.91.53,16.18,1.58,5.26,1.05,10.39,2.63,15.39,4.74v92.75h104.98V36.34c0-18.68,11.44-28.02,34.34-28.02,5.53,0,10.92.53,16.18,1.58,5.26,1.05,10.39,2.63,15.39,4.74v264.43Z"/>
  <path class="st0" d="M1402.27,279.95c-21.05,0-39.53-4.48-55.45-13.42-15.92-8.94-28.35-21.37-37.3-37.3-8.95-15.92-13.42-34.4-13.42-55.45s4.67-39.13,14.01-55.06c9.34-15.92,22.16-28.42,38.48-37.49,16.31-9.08,34.86-13.62,55.65-13.62,17.37,0,32.89,3.03,46.57,9.08,13.68,6.05,24.47,14.34,32.36,24.86,7.89,10.53,11.84,22.5,11.84,35.92,0,21.84-8.62,37.76-25.85,47.75-17.24,10-45.06,15-83.47,15-5,0-9.21-.06-12.63-.2-3.42-.13-6.58-.33-9.47-.59,1.58,8.16,7.1,14.74,16.58,19.73,9.47,5,21.44,7.5,35.92,7.5,5.26,0,11.31-.59,18.16-1.78,6.84-1.18,13.35-2.76,19.54-4.74,6.18-1.97,10.72-3.88,13.62-5.72l22.1,44.2c-6.06,3.95-14.01,7.57-23.88,10.85-9.87,3.29-20.33,5.85-31.38,7.7-11.05,1.84-21.71,2.76-31.97,2.76ZM1403.85,116.55c-12.1,0-22.3,4.01-30.59,12.04-8.29,8.03-12.43,18.22-12.43,30.59,2.1.27,4.27.4,6.51.4h6.12c21.57,0,37.03-1.91,46.37-5.72,9.34-3.81,14.01-9.4,14.01-16.77,0-6.05-2.76-10.98-8.29-14.8-5.53-3.81-12.77-5.72-21.71-5.72Z"/>
  <path class="st0" d="M1531.5,152.77c0-25.52,7.7-45.32,23.09-59.4,15.39-14.07,36.9-21.12,64.53-21.12,19.47,0,34.93,3.23,46.37,9.67,11.45,6.45,17.17,14.8,17.17,25.06,0,5.27-1.45,10.79-4.34,16.58-2.9,5.79-6.31,10.53-10.26,14.21-5-2.63-10.92-4.74-17.76-6.31-6.85-1.58-13.29-2.37-19.34-2.37-23.94,0-35.92,12.5-35.92,37.49v112.48h-63.54v-126.29Z"/>
  <path class="st0" d="M1808.7,280.98c-20.79,0-39.6-4.74-56.44-14.21-16.84-9.47-30.19-22.23-40.06-38.28-9.87-16.05-14.8-33.94-14.8-53.68s4.93-37.95,14.8-53.87c9.87-15.92,23.22-28.61,40.06-38.09,16.84-9.47,35.65-14.21,56.44-14.21s39.92,4.74,56.63,14.21c16.71,9.47,29.99,22.17,39.86,38.09,9.87,15.92,14.8,33.88,14.8,53.87s-4.93,37.63-14.8,53.68c-9.87,16.05-23.16,28.81-39.86,38.28-16.71,9.47-35.59,14.21-56.63,14.21ZM1841.86,139.49c-8.68-9.34-19.73-14.01-33.15-14.01s-24.47,4.67-33.15,14.01c-8.68,9.34-13.02,21.11-13.02,35.32s4.34,25.99,13.02,35.32c8.68,9.34,19.73,14.01,33.15,14.01s24.47-4.67,33.15-14.01c8.68-9.34,13.02-21.11,13.02-35.32s-4.34-25.98-13.02-35.32Z"/>
  <g>
    <path class="st1" d="M.96,142.72c0-17.3,0-34.59,0-51.89,0-46.47,34.41-84.12,76.84-84.12,23.95,0,47.91.02,71.86.09,12.12.04,23.5,3.84,34.34,9.65,16.2,8.7,28.5,21.89,37.33,39.06,1.68,3.27,1.35,3.96-2.08,4.28-5.92.56-11.73,1.86-17.57,3-7.99,1.56-15.93,3.41-23.78,5.66-9.64,2.77-19.17,5.97-28.5,9.83-12.35,5.12-24.26,11.26-35.5,18.86-18.8,12.7-35.11,28.29-46.28,49.49-7.5,14.22-11.82,29.46-12.49,46.08-.91,22.59,4.59,43.25,13.94,63.02,3.31,6.99,7.2,13.58,11.25,20.06.45.72,1.26,1.42.88,2.31-.46,1.09-1.58.69-2.43.69-17.32.02-34.64.02-51.96.02-7.26,0-14.53,0-21.79,0-3.92,0-4.06-.15-4.06-4.52,0-43.87,0-87.73,0-131.6Z"/>
    <path class="st0" d="M238.02,56.87c-2.77,1.39-7.56,4.17-10.3,6.56-1.44,1.05-1.98,2.02-1.27,4.11,4.23,12.47,5.93,25.52,6,38.72.17,30.21-10.38,54.98-32.36,73.53-6.78,5.72-14.44,9.88-22.58,12.81-2.17.78-2.35,1.57-1.21,3.72,14.09,26.56,28.1,53.17,42.14,79.76.89,1.68,1.02,2.88-1.24,2.59-10.03-1.32-20.27-.96-30.03-4.53-6.59-2.41-12.64-6.02-18.62-9.79-14.85-9.36-26.64-22.37-37.07-37.09-2.76-3.9-5.16-8.12-7.07-12.35-1.97-4.37-4.47-8.63-5.67-13.41-3.19-12.67-5.11-25.56-3.4-38.69,1.57-12.07,5.45-23.34,11.36-33.74,9.77-17.22,23.14-30.32,38.7-41.01,15.46-10.61,32.14-18.2,49.44-24.22,6.26-2.18,16.84-5.08,23.19-6.97Z"/>
  </g>
</svg>